<svg xmlns="http://www.w3.org/2000/svg" viewBox="0 0 1736 543.815">
    <defs>
        <style>
            .cls-1{fill:#2a1975}.cls-2,.cls-3,.cls-5{fill:none}.cls-2,.cls-3{stroke:#2a1975;stroke-width:2px}.cls-3{stroke-dasharray:2 2}.cls-4{stroke:none}
        </style>
    </defs>
    <g id="Group_1935" data-name="Group 1935" transform="translate(-113 -2213)">
        <circle id="Ellipse_184" cx="16" cy="16" r="16" class="cls-1" data-name="Ellipse 184" transform="translate(113 2411)"/>
        <path id="Path_1125" d="M16 0A16 16 0 1 1 0 16 16 16 0 0 1 16 0z" class="cls-1" data-name="Path 1125" transform="translate(385 2242)"/>
        <path id="Rectangle_858" d="M0 0h2v267H0z" class="cls-1" data-name="Rectangle 858" transform="rotate(-60 2167.98 1102.912)"/>
        <path id="Rectangle_860" d="M0 0h2v140H0z" class="cls-1" data-name="Rectangle 860" transform="rotate(60 -1919.675 1670.795)"/>
        <path id="Rectangle_861" d="M0 0h2v204H0z" class="cls-1" data-name="Rectangle 861" transform="rotate(150 -73.566 1284.738)"/>
        <path id="Rectangle_862" d="M0 0h2v229H0z" class="cls-1" data-name="Rectangle 862" transform="rotate(111 -491.857 1556.955)"/>
        <path id="Rectangle_863" d="M0 0h2v183H0z" class="cls-1" data-name="Rectangle 863" transform="rotate(174.87 364.728 1285.52)"/>
        <path id="Rectangle_864" d="M0 0h2v183H0z" class="cls-1" data-name="Rectangle 864" transform="rotate(-135 980.114 1092.178)"/>
        <path id="Rectangle_865" d="M0 0h2v107H0z" class="cls-1" data-name="Rectangle 865" transform="rotate(-150 862.506 1024.955)"/>
        <path id="Rectangle_866" d="M0 0h2v146H0z" class="cls-1" data-name="Rectangle 866" transform="rotate(-135 1234.285 997.465)"/>
        <path id="Rectangle_868" d="M0 0h2v198H0z" class="cls-1" data-name="Rectangle 868" transform="rotate(-150 1216.676 1072.657)"/>
        <path id="Rectangle_867" d="M0 0h2v187H0z" class="cls-1" data-name="Rectangle 867" transform="rotate(165.02 589.492 1334.26)"/>
        <path id="Rectangle_859" d="M0 0h2v226H0z" class="cls-1" data-name="Rectangle 859" transform="rotate(-149 507.534 1343.668)"/>
        <circle id="Ellipse_185" cx="16" cy="16" r="16" class="cls-1" data-name="Ellipse 185" transform="translate(350 2548)"/>
        <g id="Ellipse_186" class="cls-2" data-name="Ellipse 186" transform="translate(480 2427)">
            <circle cx="48" cy="48" r="48" class="cls-4"/>
            <circle cx="48" cy="48" r="47" class="cls-5"/>
        </g>
        <g id="Ellipse_188" class="cls-2" data-name="Ellipse 188" transform="translate(778 2533)">
            <circle cx="70" cy="70" r="70" class="cls-4"/>
            <circle cx="70" cy="70" r="69" class="cls-5"/>
        </g>
        <g id="Ellipse_190" class="cls-2" data-name="Ellipse 190" transform="translate(749 2213)">
            <circle cx="70" cy="70" r="70" class="cls-4"/>
            <circle cx="70" cy="70" r="69" class="cls-5"/>
        </g>
        <g id="Ellipse_191" class="cls-2" data-name="Ellipse 191" transform="translate(1014 2335)">
            <circle cx="55" cy="55" r="55" class="cls-4"/>
            <circle cx="55" cy="55" r="54" class="cls-5"/>
        </g>
        <circle id="Ellipse_193" cx="16" cy="16" r="16" class="cls-1" data-name="Ellipse 193" transform="translate(1053 2374)"/>
        <circle id="Ellipse_194" cx="16" cy="16" r="16" class="cls-1" data-name="Ellipse 194" transform="translate(1340 2602)"/>
        <circle id="Ellipse_197" cx="16" cy="16" r="16" class="cls-1" data-name="Ellipse 197" transform="translate(1489 2455)"/>
        <circle id="Ellipse_199" cx="16" cy="16" r="16" class="cls-1" data-name="Ellipse 199" transform="translate(1716 2594)"/>
        <circle id="Ellipse_200" cx="16" cy="16" r="16" class="cls-1" data-name="Ellipse 200" transform="translate(1817 2422)"/>
        <circle id="Ellipse_198" cx="16" cy="16" r="16" class="cls-1" data-name="Ellipse 198" transform="translate(1438 2274)"/>
        <g id="Ellipse_195" class="cls-2" data-name="Ellipse 195" transform="translate(1308 2570)">
            <circle cx="48" cy="48" r="48" class="cls-4"/>
            <circle cx="48" cy="48" r="47" class="cls-5"/>
        </g>
        <g id="Ellipse_196" class="cls-2" data-name="Ellipse 196" transform="translate(1292 2554)">
            <circle cx="64" cy="64" r="64" class="cls-4"/>
            <circle cx="64" cy="64" r="63" class="cls-5"/>
        </g>
        <g id="Ellipse_192" class="cls-3" data-name="Ellipse 192" transform="translate(791 2255)">
            <circle cx="28" cy="28" r="28" class="cls-4"/>
            <circle cx="28" cy="28" r="27" class="cls-5"/>
        </g>
        <g id="Ellipse_189" class="cls-2" data-name="Ellipse 189" transform="translate(816 2571)">
            <circle cx="32" cy="32" r="32" class="cls-4"/>
            <circle cx="32" cy="32" r="31" class="cls-5"/>
        </g>
        <g id="Ellipse_187" class="cls-2" data-name="Ellipse 187" transform="translate(496 2443)">
            <circle cx="32" cy="32" r="32" class="cls-4"/>
            <circle cx="32" cy="32" r="31" class="cls-5"/>
        </g>
    </g>
</svg>
